<?xml version="1.0" encoding="UTF-8" standalone="no"?>
<svg
   xmlns:svg="http://www.w3.org/2000/svg"
   xmlns="http://www.w3.org/2000/svg"
   xmlns:xlink="http://www.w3.org/1999/xlink"
   xmlns:sodipodi="http://sodipodi.sourceforge.net/DTD/sodipodi-0.dtd"
   xmlns:inkscape="http://www.inkscape.org/namespaces/inkscape"
   inkscape:version="1.1-dev (1:0.92.0+devel+202005110039+9ce7266)"
   inkscape:export-ydpi="104.369"
   inkscape:export-xdpi="104.369"
   inkscape:export-filename="/home/cameron/Development/primerdesign/favicon.png"
   sodipodi:docname="icon.svg"
   width="300"
   height="300"
   viewBox="0 0 79.374998 79.375004"
   version="1.1"
   id="svg6">
  <sodipodi:namedview
     inkscape:current-layer="svg6"
     inkscape:window-maximized="1"
     inkscape:window-y="27"
     inkscape:window-x="60"
     inkscape:cy="165.83409"
     inkscape:cx="35.374383"
     inkscape:zoom="1.4333333"
     showgrid="false"
     id="namedview18"
     inkscape:window-height="1016"
     inkscape:window-width="1860"
     inkscape:pageshadow="2"
     inkscape:pageopacity="0"
     guidetolerance="10"
     gridtolerance="10"
     objecttolerance="10"
     borderopacity="1"
     bordercolor="#666666"
     pagecolor="#ffffff" />
  <defs
     id="defs2">
    <linearGradient
       id="linearGradient886">
      <stop
         style="stop-color:#000000;stop-opacity:1;"
         offset="0"
         id="stop882" />
      <stop
         style="stop-color:#000000;stop-opacity:0;"
         offset="1"
         id="stop884" />
    </linearGradient>
    <clipPath
       clipPathUnits="userSpaceOnUse"
       id="clipPath847">
      <path
         style="fill:none;stroke:#000000;stroke-width:0.264583px;stroke-linecap:butt;stroke-linejoin:miter;stroke-opacity:1"
         d="m 248.78206,30.221255 -74.47635,74.476355 c 0,0 53.03137,19.89354 74.18064,-5.896434 21.14928,-25.789978 0.29571,-68.579921 0.29571,-68.579921 z"
         id="path849" />
    </clipPath>
    <linearGradient
       xlink:href="#linearGradient886"
       id="linearGradient888"
       x1="92.07456"
       y1="71.723388"
       x2="135.73244"
       y2="26.018372"
       gradientUnits="userSpaceOnUse"
       gradientTransform="translate(112.23943)" />
    <clipPath
       clipPathUnits="userSpaceOnUse"
       id="clipPath900">
      <g
         id="g904"
         transform="translate(216.1042,1.7748202)">
        <circle
           style="fill:#4d6ccd;fill-opacity:0.607292;stroke-width:3.8708;stroke-linecap:round;stop-color:#000000"
           id="circle902"
           cx="2.951766"
           cy="65.055428"
           r="39.153217" />
      </g>
    </clipPath>
    <linearGradient
       gradientUnits="userSpaceOnUse"
       y2="42.529797"
       x2="262.88272"
       y1="108.75694"
       x1="206.80276"
       id="linearGradient845"
       xlink:href="#linearGradient886"
       inkscape:collect="always" />
  </defs>
  <path
     transform="translate(-179.48482,-27.14382)"
     clip-path="url(#clipPath900)"
     d="m 206.15243,35.177908 c -0.10041,-0.0042 -0.2016,0.0024 -0.30231,0.02015 0.10087,-0.01774 0.20173,-0.02435 0.30231,-0.02015 z m 0.002,0 c 0.10092,0.0044 0.2019,0.01959 0.30179,0.04599 -0.10006,-0.02647 -0.2007,-0.04166 -0.30179,-0.04599 z m 24.21145,0.515731 c -0.0611,0.06112 -0.11857,0.126995 -0.17209,0.197921 0.0535,-0.07092 0.11153,-0.136811 0.1726,-0.197921 -9e-5,9.3e-5 -4.2e-4,-9.3e-5 -5.1e-4,0 z m -23.03788,0.06666 c 0.0602,0.06014 0.11476,0.117364 0.16382,0.172599 -0.0491,-0.05524 -0.10315,-0.112456 -0.1633,-0.172599 -9e-5,-9.2e-5 -4.2e-4,9.1e-5 -5.2e-4,0 z m 25.97103,0.388607 -0.0243,2.492871 c -0.0381,3.97474 -8.36162,-0.664533 -10.22808,1.861997 -0.90094,1.21956 -11.2895,-1.184497 -12.86471,-0.09885 l -2.13464,0.98414 1.33065,6.876983 c 0,0 13.62412,6.512055 12.61011,7.074814 0.87881,0.955787 6.44533,4.341281 4.60414,5.301953 -1.84119,0.960671 -11.09008,-0.503479 -13.09092,0.139641 -4.00168,1.28624 -5.76231,1.61494 -6.71649,5.396937 -1.54916,6.140207 8.15961,14.938776 15.92123,15.436712 4.79116,2.567463 7.6701,4.304707 9.19825,7.453598 0.93697,1.93071 1.33367,3.943751 1.36684,6.934981 l 0.0274,2.49287 -0.56689,0.48989 c -0.7842,0.6769 -1.63885,0.6406 -2.38073,-0.10128 -0.333,-0.33299 -0.59118,-0.80855 -0.59118,-1.08882 0,-0.34502 -0.13922,-0.53506 -0.45475,-0.61961 -0.59406,-0.1592 -20.33645,-0.1592 -20.93051,0 -0.31553,0.0845 -0.45475,0.27459 -0.45475,0.61961 0,0.28027 -0.25819,0.75583 -0.59118,1.08882 -0.73812,0.73813 -1.59593,0.77748 -2.37246,0.10955 -0.0299,-0.0257 -3.1e-4,-1.56e-4 -0.0806,-0.0739 0.57733,1.876357 7.03243,7.392737 8.98808,9.348277 0,0 30.86011,-2.06489 37.3817,-3.38842 6.52159,-1.32354 17.35966,-33.426912 17.35966,-33.426912 z m -28.42353,62.77291 c -0.0504,-0.0459 -0.0949,-0.0903 -0.13591,-0.13487 0.0405,0.0439 0.0873,0.08797 0.13591,0.13487 z m -0.13591,-0.13487 c -0.004,-0.004 -0.007,-0.008 -0.0103,-0.0119 0.003,0.004 0.007,0.008 0.0103,0.0119 z m -0.0103,-0.0119 c -0.0377,-0.0418 -0.0718,-0.0837 -0.10232,-0.12764 0.0302,0.0434 0.065,0.0863 0.10232,0.12764 z m -0.10232,-0.12764 c -0.005,-0.007 -0.009,-0.0146 -0.014,-0.0217 0.005,0.007 0.009,0.0147 0.014,0.0217 z m -0.014,-0.0217 c -0.0287,-0.0434 -0.055,-0.0883 -0.078,-0.13694 0.0228,0.0482 0.0495,0.0939 0.078,0.13694 z m -0.078,-0.13694 c -0.003,-0.007 -0.006,-0.0143 -0.009,-0.0212 0.003,0.007 0.006,0.0145 0.009,0.0212 z m -0.009,-0.0212 c -0.0222,-0.0493 -0.0424,-0.10147 -0.06,-0.15916 0.0174,0.0575 0.0379,0.10995 0.06,0.15916 z m -0.06,-0.15916 c -0.004,-0.0126 -0.007,-0.0273 -0.0103,-0.0403 0.004,0.0129 0.007,0.0278 0.0103,0.0403 z m -0.0103,-0.0403 c -0.016,-0.0576 -0.0308,-0.11726 -0.0434,-0.18552 0.0125,0.0679 0.0276,0.12829 0.0434,0.18552 z m 18.29191,-17.503842 c -0.38218,-0.204798 -0.77492,-0.409636 -1.18236,-0.614434 0.4062,0.204782 0.80008,0.409577 1.18236,0.614434 z M 204.41352,36.733369 c -0.0286,0.391449 -0.0266,0.975363 -0.0227,1.907894 -0.004,-0.932531 -0.006,-1.516456 0.0227,-1.907894 z m -0.0227,1.907894 c 0.002,0.474101 0.0167,0.934921 0.0444,1.383378 -0.0278,-0.448457 -0.0425,-0.909277 -0.0444,-1.383378 z m 25.38863,-1.688269 c -0.0128,0.104458 -0.0196,0.212595 -0.0196,0.324011 v 0.925525 h 5.2e-4 v -0.925525 c 0,-0.111416 0.006,-0.219555 0.0191,-0.324011 z m -21.86534,0.06253 c 0.004,0.08076 0.005,0.167312 0.005,0.261483 v 0.925525 h 5.2e-4 v -0.925525 c 0,-0.09417 -0.002,-0.180727 -0.006,-0.261483 z m 0.13319,4.37354 0.27861,0.605484 z m 0.27861,0.605484 c 2e-4,0.07647 0.0145,0.179335 0.0398,0.299724 -0.0253,-0.120406 -0.0396,-0.223256 -0.0398,-0.299724 z m 21.0292,-0.556038 v 0.579293 c 0,0.03984 -0.005,0.08935 -0.015,0.146761 0.01,-0.05741 0.0155,-0.10692 0.0155,-0.146761 V 41.43851 Z m -20.72483,1.717725 c 0.0592,0.155144 0.12376,0.310323 0.19172,0.456303 l 0.24753,0.530717 -0.24701,-0.530717 c -0.068,-0.14598 -0.13305,-0.301142 -0.19224,-0.456303 z m 0.43925,0.98702 0.2465,0.530716 h 5.1e-4 z m 19.83342,-0.687297 c -0.0884,0.206125 -0.18564,0.416343 -0.28733,0.619601 -0.0565,0.112897 -0.11574,0.225594 -0.17828,0.337963 0.0625,-0.11237 0.12232,-0.225066 0.1788,-0.337963 0.10169,-0.203258 0.19841,-0.413478 0.28681,-0.619601 z m -3.79461,1.379244 c 0,0.06748 -0.0905,0.198663 -0.24494,0.370003 0.1544,-0.171346 0.24546,-0.302521 0.24546,-0.370003 0,-6e-5 -5.1e-4,6e-5 -5.2e-4,0 z m -19.17298,1.102258 c 0.1781,0.347457 0.3731,0.686876 0.58549,1.019576 -0.21238,-0.3327 -0.4074,-0.672119 -0.58549,-1.019576 z m 21.06744,0.451135 c -0.096,0.106218 -0.19497,0.211565 -0.2961,0.31626 0.10122,-0.104787 0.19999,-0.209948 0.2961,-0.31626 z m -1.27227,1.235067 c -0.34675,0.297742 -0.71427,0.586882 -1.10071,0.864547 0.38656,-0.277748 0.75387,-0.566701 1.10071,-0.864547 z m -8.67131,0.285771 c -1.34454,1.43e-4 -2.41599,0.01897 -3.15019,0.05323 0.7343,-0.03421 1.80539,-0.05309 3.15019,-0.05323 z m -3.63854,0.08165 c -0.28211,0.02101 -0.47626,0.04574 -0.57412,0.0739 0.0979,-0.02817 0.29201,-0.05286 0.57412,-0.0739 z m -0.57412,0.0739 c -0.0248,0.0071 -0.0429,0.01466 -0.0553,0.02222 0.0123,-0.0075 0.0308,-0.01518 0.0553,-0.02222 z m 8.15351,4.797123 c 0.53214,0.270496 1.02203,0.524753 1.48259,0.768947 -0.45978,-0.243765 -0.94639,-0.497089 -1.48259,-0.768947 z m -7.20576,0.375171 c 0.49181,0.280219 1.00569,0.559762 1.54305,0.839742 -0.53736,-0.27998 -1.05124,-0.559523 -1.54305,-0.839742 z m -2.71198,2.814816 c -0.22287,0.168431 -0.46544,0.36752 -0.72037,0.589111 0.25494,-0.221578 0.4975,-0.420682 0.72037,-0.589111 z m 3.66799,0.433565 c 0.51549,0.295799 0.90432,0.542303 1.01906,0.648023 -0.11421,-0.105474 -0.50283,-0.351787 -1.01906,-0.648023 z m -4.77904,0.503844 c -0.26532,0.242196 -0.53886,0.502943 -0.81338,0.774115 0.27444,-0.271061 0.54813,-0.532011 0.81338,-0.774115 z m 5.4715,0.506431 c -0.22211,0.161427 -0.52819,0.365921 -0.86454,0.574124 0.3365,-0.208285 0.64245,-0.412678 0.86454,-0.574124 z m -7.10292,1.103807 c -0.53677,0.567772 -1.04605,1.145288 -1.46709,1.6676 0.42102,-0.522346 0.93034,-1.099786 1.46709,-1.6676 z m 15.74064,0.143145 c 0.0227,0.02381 0.0354,0.04399 0.0522,0.06563 -0.0168,-0.02162 -0.0295,-0.04183 -0.0522,-0.06563 z m 0.11576,0.293005 c -0.0105,0.01695 -0.0608,0.03273 -0.14573,0.04754 0.0853,-0.01484 0.13521,-0.03055 0.14573,-0.04754 z m -0.50178,0.08888 c -0.60051,0.05074 -1.67946,0.08431 -2.91817,0.100769 1.2387,-0.01643 2.31767,-0.05004 2.91817,-0.100769 z m -8.49251,0.05994 c 0.99939,0.0345 2.318,0.05209 3.63647,0.05271 -1.31849,-5.93e-4 -2.63707,-0.01823 -3.63647,-0.05271 z m -9.10177,2.137854 c -0.0635,0.100886 -0.11902,0.195196 -0.16484,0.282152 -0.12975,0.246187 -0.25139,0.489397 -0.36536,0.730189 0.11397,-0.240792 0.23612,-0.484002 0.36587,-0.730189 0.0458,-0.08696 0.10079,-0.181264 0.16433,-0.282152 z m 3.53421,1.146902 -0.28944,0.455068 c -0.0692,0.108889 -0.13681,0.22106 -0.20258,0.334862 0.0658,-0.113808 0.13389,-0.225973 0.20309,-0.334862 z m -0.74006,1.24985 c -0.098,0.191445 -0.18971,0.38118 -0.26717,0.560689 0.0774,-0.179414 0.1692,-0.369353 0.26717,-0.560689 z m -0.39323,0.871783 c -0.0743,0.197813 -0.12832,0.374295 -0.15606,0.515731 0.0277,-0.141428 0.0818,-0.317931 0.15606,-0.515731 z m -0.15606,0.515731 c -0.0139,0.07072 -0.0212,0.13253 -0.0212,0.183968 0,0.05152 8.7e-4,0.09641 0.0227,0.135911 -0.0219,-0.03951 -0.0222,-0.08439 -0.0222,-0.135911 0,-0.05144 0.007,-0.113253 0.0207,-0.183968 z m -3.76411,0.01912 c -0.20377,0.904462 -0.28201,1.791133 -0.23462,2.681488 -0.0474,-0.890511 0.0308,-1.776862 0.23462,-2.681488 z m 5.0772,0.526581 c 1.32096,0.05209 3.94955,0.05271 9.18136,0.05271 -5.23181,0 -7.86038,-6.74e-4 -9.18136,-0.05271 z m 15.23887,0.04599 c -86.44896,-25.703134 -43.22448,-12.851567 0,0 z m -20.49178,2.777612 c 0.1029,0.835488 0.31975,1.680361 0.64131,2.550747 -0.32149,-0.870246 -0.53841,-1.715392 -0.64131,-2.550747 z m 14.43427,0.465087 c -3.93295,0 -6.39475,1.22e-4 -7.93595,0.02222 1.54119,-0.02207 4.00301,-0.02222 7.93595,-0.02222 z m -9.19066,0.05219 c -0.49423,0.01959 -0.8041,0.04675 -0.99838,0.08371 0.19427,-0.03695 0.50416,-0.06414 0.99838,-0.08371 z m -1.32188,0.291455 c -0.003,0.02288 -0.003,0.04736 -0.003,0.07338 0,0.05808 0.005,0.119745 0.0134,0.184486 -0.009,-0.06474 -0.0129,-0.126404 -0.0129,-0.184486 0,-0.02602 -1.8e-4,-0.0505 0.003,-0.07338 z m 0.31006,1.170986 c 0.0914,0.194985 0.21037,0.404895 0.33693,0.618567 -0.12648,-0.213561 -0.24557,-0.423677 -0.33693,-0.618567 z m -3.43958,0.960665 c 0.16157,0.401077 0.34074,0.807175 0.54777,1.222148 0.0829,0.166161 0.16433,0.322879 0.24598,0.472839 -0.0816,-0.149963 -0.16257,-0.306678 -0.24547,-0.472839 -0.20708,-0.415097 -0.38667,-0.820957 -0.54828,-1.222148 z m 4.05608,0.101286 c 0.15227,0.228943 0.31991,0.462195 0.50229,0.699698 -0.18237,-0.237516 -0.35003,-0.470744 -0.50229,-0.699698 z m 5.92263,0.710551 c -1.02242,0.02404 -1.74948,0.05506 -2.04897,0.08992 0.29952,-0.03486 1.02649,-0.06586 2.04897,-0.08992 z m -2.04897,0.08992 c -0.0998,0.01162 -0.15193,0.02381 -0.15193,0.03617 0,-0.01236 0.0521,-0.02455 0.15193,-0.03617 z m -0.15193,0.03617 c 0,0.02637 0.0268,0.07025 0.0765,0.128675 -0.0497,-0.05842 -0.0765,-0.102304 -0.0765,-0.128675 z m 0.61702,0.628386 c 0.25064,0.208129 0.5611,0.449519 0.89969,0.699698 -0.33856,-0.250182 -0.64909,-0.491564 -0.89969,-0.699698 z m 1.42472,1.078486 c 0.28811,0.202933 0.58211,0.399939 0.86972,0.585494 -0.2877,-0.185613 -0.58153,-0.382487 -0.86972,-0.585494 z m 5.58106,1.350822 c 0.96231,0 1.83742,0.01882 2.47168,0.04909 -0.63417,-0.03025 -1.50937,-0.04909 -2.47168,-0.04909 z m -7.49826,0.137459 c 0.56243,0.435023 1.16911,0.844439 1.8924,1.273824 -0.72333,-0.429393 -1.32994,-0.838793 -1.8924,-1.273824 z m 10.99727,0.02946 c 0,0.02945 -0.0117,0.06572 -0.0346,0.107487 0.0229,-0.04177 0.0351,-0.07803 0.0351,-0.107487 0,-8.7e-5 -5.1e-4,8.8e-5 -5.1e-4,0 z m -0.50023,0.606166 c -0.15357,0.131739 -0.33548,0.273016 -0.53589,0.415478 0.20042,-0.142452 0.38232,-0.283752 0.53589,-0.415478 z m -14.17691,0.933276 c 0.29591,0.273558 0.58961,0.53228 0.8909,0.781864 -0.30117,-0.249518 -0.5951,-0.508391 -0.8909,-0.781864 z m 2.32544,1.862936 c 0.34284,0.235249 0.7063,0.469916 1.09915,0.710033 -0.39284,-0.240133 -0.75633,-0.474768 -1.09915,-0.710033 z m 8.51007,0.528648 c 0.44101,0.208489 0.86714,0.41642 1.28003,0.624253 -0.41441,-0.207979 -0.83885,-0.415692 -1.28003,-0.624253 z m -5.41414,1.317234 c 1.0027,0.538114 2.17704,1.132313 3.5941,1.82831 -1.41706,-0.695997 -2.59137,-1.290217 -3.5941,-1.82831 z m -4.67878,2.94297 c -0.3309,0.264393 -0.65283,0.543105 -0.9648,0.83406 0.31198,-0.290955 0.6339,-0.569667 0.9648,-0.83406 z m -0.9648,0.83406 c -0.31198,0.290954 -0.6139,0.593984 -0.90331,0.90692 0.28942,-0.312936 0.59133,-0.615969 0.90331,-0.90692 z m 5.57692,0.354499 c -0.45002,0.283932 -0.8505,0.548637 -1.19838,0.791168 0.34782,-0.242467 0.74851,-0.507331 1.19838,-0.791168 z m -2.07998,1.449525 c -0.11955,0.09784 -0.22481,0.189423 -0.31574,0.274402 0.0909,-0.0849 0.1963,-0.17667 0.31574,-0.274402 z m -0.68471,0.931725 c 0.0324,0.02422 0.0837,0.04556 0.15916,0.06459 -0.0752,-0.019 -0.12682,-0.04044 -0.15916,-0.06459 z m -5.29115,0.148828 c -0.23334,0.34317 -0.45078,0.691415 -0.65061,1.042832 0.19982,-0.35142 0.41728,-0.699662 0.65061,-1.042832 z m 20.16776,0.579292 c 0.29682,0.314785 0.56508,0.635027 0.80977,0.965317 -0.24476,-0.330399 -0.51284,-0.650434 -0.80977,-0.965317 z m 1.16014,1.469163 c 0.22286,0.341423 0.42487,0.69506 0.61236,1.065051 0.1412,0.278646 0.27139,0.583475 0.38396,0.890902 -0.11257,-0.307438 -0.24224,-0.612256 -0.38344,-0.890902 -0.18749,-0.369991 -0.39001,-0.72363 -0.61288,-1.065051 z m 0.99632,1.955953 c 0.11256,0.307427 0.20783,0.617485 0.28008,0.906925 -0.0722,-0.289454 -0.16752,-0.599487 -0.28008,-0.906925 z m -3.96823,-1.873787 0.87694,0.907955 -0.87643,-0.907955 c -8e-5,-8.2e-5 -4.4e-4,7.9e-5 -5.1e-4,0 z m -19.78019,0.505912 c -0.0714,0.177602 -0.13803,0.355177 -0.19896,0.532265 -0.0237,0.06902 -0.0466,0.145405 -0.0698,0.221692 0.0232,-0.07644 0.0465,-0.152553 0.0703,-0.221692 0.0609,-0.177088 0.12708,-0.354663 0.19844,-0.532265 z m 19.78019,0.518314 c -0.12053,0.01598 -0.44286,0.02934 -0.92243,0.03979 0.47922,-0.01045 0.80168,-0.02383 0.92243,-0.03979 z m -0.92243,0.03979 c -0.95913,0.02091 -2.5462,0.0302 -4.39973,0.02584 1.85359,0.0044 3.44053,-0.0049 4.39973,-0.02584 z m -10.28258,-0.0041 c -0.90569,9.87e-4 -1.72216,0.0071 -2.41432,0.01757 1.3842,-0.02085 3.26711,-0.02385 5.36195,-0.0047 -1.04742,-0.0096 -2.04193,-0.01391 -2.94763,-0.01292 z m -4.81831,0.156577 c -0.0154,0.0113 -0.0307,0.01966 -0.0465,0.03514 0.0158,-0.01547 0.0311,-0.02385 0.0465,-0.03514 z m -0.13125,0.134361 c -0.047,0.06378 -0.0946,0.144984 -0.14211,0.234609 0.0474,-0.08952 0.0951,-0.170834 0.14211,-0.234609 z m -3.93568,0.04909 c -0.0837,0.29483 -0.16323,0.631079 -0.23616,0.998389 0.0729,-0.367157 0.15252,-0.703649 0.23616,-0.998389 z m -0.23616,0.998389 c -0.1047,0.527299 -0.19645,1.112829 -0.26924,1.709459 0.0728,-0.59665 0.16453,-1.18215 0.26924,-1.709459 z m 24.71632,1.165309 c 0.0152,0.1685 0.0141,0.31211 -0.006,0.42116 0.0198,-0.10905 0.0209,-0.25265 0.006,-0.42116 z m -0.006,0.42116 c -0.007,0.0363 -0.0155,0.0689 -0.0264,0.0971 -0.007,0.0175 -0.0172,0.034 -0.0341,0.0496 0.0169,-0.0156 0.0279,-0.0321 0.0346,-0.0496 0.0109,-0.0283 0.0192,-0.0608 0.0258,-0.0971 z m -21.26123,-0.11576 c 0.005,0.0459 0.013,0.0871 0.0243,0.12248 0.0159,0.05 0.0327,0.0933 0.0698,0.13177 -0.0369,-0.0384 -0.0534,-0.0819 -0.0693,-0.13177 -0.0112,-0.0354 -0.0196,-0.0766 -0.0248,-0.12248 z m -3.88348,3.57395 c 0.0173,0.30671 0.0357,0.55194 0.0594,0.75499 -0.0235,-0.20379 -0.042,-0.44595 -0.0594,-0.75499 z m 0.0594,0.75499 c 0.0103,0.0892 0.0226,0.17005 0.0357,0.24391 -0.0132,-0.0741 -0.0252,-0.15451 -0.0357,-0.24391 z"
     style="opacity:1;fill:url(#linearGradient845);fill-opacity:1;stroke-width:0.202225"
     id="path835" />
  <path
     style="fill:#000000;fill-opacity:1;stroke-width:0.202225"
     d="m 25.470934,71.85174 c -0.49459,-0.42544 -0.56891,-0.64939 -0.64144,-1.932934 -0.10221,-1.80901 0.28108,-4.95046 0.78149,-6.40491 0.97485,-2.83344 3.31385,-5.76921 6.08316,-7.63521 l 1.13627,-0.76564 1.877,0.94269 1.877,0.94268 -1.29436,0.81667 c -1.80008,1.13572 -2.81105,1.96298 -2.81105,2.30018 0,0.23973 0.86743,0.28634 5.32863,0.28634 h 5.32864 l 0.78868,0.58277 c 0.43378,0.32052 1.18312,0.99155 1.66521,1.49117 l 0.87652,0.9084 -0.87652,0.11615 c -0.48209,0.0639 -4.19807,0.0858 -8.25775,0.0486 -4.18967,-0.0384 -7.53241,0.012 -7.73088,0.11645 -0.42307,0.22261 -1.04383,2.23565 -0.86407,2.80204 0.12669,0.39916 0.29612,0.40564 10.6092,0.40564 9.30455,0 10.49403,-0.0354 10.60141,-0.31519 0.17365,-0.45252 -0.20876,-1.98457 -0.77356,-3.09915 -1.49991,-2.95993 -3.95287,-4.86646 -10.2243,-7.94672 -5.66822,-2.78399 -7.45044,-3.93557 -9.91752,-6.40814 -1.55543,-1.55889 -2.10891,-2.27941 -2.77206,-3.60869 -1.94106,-3.89077 -1.88586,-7.09491 0.19009,-11.03387 0.73326,-1.3913 3.85617,-4.69494 5.4651,-5.78139 l 0.95351,-0.64386 1.72597,0.93321 c 0.94929,0.51328 1.72498,0.99322 1.72376,1.06655 -0.002,0.0733 -0.55287,0.47415 -1.22587,0.89072 -0.67301,0.41658 -1.16714,0.84883 -1.09808,0.96057 0.16839,0.27245 10.54797,0.27692 10.71626,0.005 0.22607,-0.36577 -1.778,-1.51535 -7.17673,-4.11673 -9.34917,-4.50491 -12.59765,-8.69195 -12.62884,-16.27756 -0.0102,-2.486749 -0.009,-2.495029 0.55715,-2.982829 0.78437,-0.67621 1.63885,-0.63961 2.38042,0.10196 0.48115,0.48115 0.59112,0.76333 0.59112,1.516699 v 0.92557 h 10.92017 10.92019 v -0.92557 c 0,-1.782659 1.70487,-2.711129 2.97155,-1.618289 l 0.56739,0.48953 -0.0239,2.493299 c -0.0381,3.97474 -0.8054,6.59382 -2.67186,9.12035 -0.90094,1.21956 -2.62872,2.82806 -4.20393,3.91371 l -1.03517,0.71345 -1.88809,-0.94826 c -1.59238,-0.79974 -1.83564,-0.98426 -1.55324,-1.17814 0.18418,-0.12644 1.04333,-0.6819 1.90922,-1.23436 2.19193,-1.39849 3.88038,-3.14651 4.78406,-4.95287 0.40674,-0.81303 0.73953,-1.73901 0.73953,-2.05774 v -0.5795 h -10.51575 -10.51571 l 0.002,0.55611 c 8.1e-4,0.30587 0.2244,1.03389 0.49625,1.61781 l 0.49428,1.06168 h 7.8961 c 4.34285,0 7.89609,0.0725 7.89609,0.16119 0,0.26993 -1.45113,1.56317 -2.62623,2.34048 l -1.10958,0.73394 h -4.30003 c -2.70372,0 -4.3,0.0744 -4.3,0.20026 0,0.45609 2.18229,1.76281 6.47122,3.87484 5.61103,2.7631 7.41182,3.9205 9.80139,6.29952 2.74145,2.72936 3.9813,5.19572 4.25793,8.4701 0.15605,1.84703 -0.3625,4.00214 -1.46787,6.10056 -0.8279,1.57167 -3.80706,4.76801 -5.55503,5.95999 l -0.95149,0.64884 -1.84389,-0.98897 -1.84387,-0.98897 0.77311,-0.46279 c 0.90915,-0.54421 1.68313,-1.20811 1.68313,-1.44373 0,-0.0918 -1.57471,-0.16698 -3.49935,-0.16698 h -3.49936 l -1.00016,-0.62811 c -1.40723,-0.88375 -3.12353,-2.2189 -3.12353,-2.42986 0,-0.0989 3.35057,-0.17764 7.55528,-0.17764 h 7.55529 l 0.63485,-1.1911 c 0.34917,-0.65511 0.63485,-1.38312 0.63485,-1.61781 v -0.4267 h -10.51573 c -10.48786,0 -10.51572,8.1e-4 -10.51572,0.41719 0,0.92931 1.13996,2.74526 2.73005,4.34898 2.26691,2.28634 3.77628,3.23823 9.20124,5.80281 6.33299,2.99384 9.87209,5.89815 11.64898,9.55958 0.93697,1.93071 1.33375,3.94368 1.36692,6.93491 l 0.0277,2.493064 -0.56739,0.48976 c -0.7842,0.6769 -1.63855,0.64052 -2.38043,-0.10136 -0.333,-0.33299 -0.59112,-0.80838 -0.59112,-1.088654 0,-0.34501 -0.13948,-0.53492 -0.45501,-0.61947 -0.59406,-0.1592 -20.33627,-0.1592 -20.93033,0 -0.31553,0.0845 -0.45501,0.27446 -0.45501,0.61947 0,0.280274 -0.25813,0.755664 -0.59112,1.088654 -0.73812,0.73813 -1.59592,0.77787 -2.37245,0.10994 z m 24.39946,-33.704704 c 0,-0.41151 -0.4678,-1.49525 -1.02145,-2.36638 l -0.28919,-0.45501 h -9.20509 -9.20507 l -0.28918,0.45501 c -0.55366,0.87113 -1.02146,1.95487 -1.02146,2.36638 0,0.41216 0.0521,0.41422 10.51571,0.41422 10.46359,0 10.51573,-0.002 10.51573,-0.41422 z"
     id="path910" />
  <g
     style="fill:#2acf2e;fill-opacity:0.75359708"
     id="g896"
     transform="translate(36.619384,-25.369)">
    <circle
       style="fill:#2acf2e;fill-opacity:0.75359708;stroke-width:3.8708;stroke-linecap:round;stop-color:#000000"
       id="circle894"
       cx="2.951766"
       cy="65.055428"
       r="39.153217" />
  </g>
</svg>
