<?xml version="1.0" encoding="UTF-8" standalone="no"?>
<svg
   xmlns:svg="http://www.w3.org/2000/svg"
   xmlns="http://www.w3.org/2000/svg"
   id="svg6"
   version="1.1"
   viewBox="0 0 186.22949 171.44101"
   height="171.44101mm"
   width="186.22949mm">
  <defs
     id="defs2" />
  <g
     transform="translate(-14.800136,-7.1701035)"
     id="layer1">
    <path
       id="path835"
       d="m 107.0986,167.88959 c -0.40245,-0.41583 -0.7885,-0.81993 -0.85788,-0.898 -0.0694,-0.0781 -1.12063,-1.19557 -2.33611,-2.48335 -1.21548,-1.28777 -2.57562,-2.72959 -3.02253,-3.20403 -1.61521,-1.71473 -3.27602,-3.47127 -4.25282,-4.49797 -0.54811,-0.57611 -1.43728,-1.51807 -1.97593,-2.09325 -1.09388,-1.16808 -2.31162,-2.4578 -4.30666,-4.56128 -2.99644,-3.15929 -3.52711,-3.72054 -5.36056,-5.66947 -1.05055,-1.11671 -2.40918,-2.55794 -3.01918,-3.20272 -0.61,-0.64478 -1.60385,-1.69889 -2.20857,-2.34247 -0.60472,-0.64358 -2.0753,-2.19606 -3.26797,-3.44994 -1.19265,-1.25389 -2.41698,-2.54939 -2.7207,-2.8789 -0.30373,-0.32951 -0.80178,-0.86083 -1.10677,-1.18069 -0.305,-0.31987 -1.30318,-1.38065 -2.21818,-2.35727 -1.65672,-1.76832 -2.21047,-2.35237 -6.25828,-6.60051 -1.17105,-1.229 -2.2245,-2.34396 -2.341,-2.47769 -0.17782,-0.20411 -2.24146,-2.40047 -3.84715,-4.09455 -0.23722,-0.25029 -1.26313,-1.33648 -2.27979,-2.41378 -1.01667,-1.07729 -2.29212,-2.42532 -2.83434,-2.99561 -0.54222,-0.57029 -1.04224,-1.09858 -1.11115,-1.17397 -0.0689,-0.0754 -1.09482,-1.16555 -2.27979,-2.4226 -1.18497,-1.25704 -2.51129,-2.67113 -2.94736,-3.14241 -0.43607,-0.47129 -1.847,-1.96597 -3.13541,-3.32152 -1.28839,-1.355552 -2.81705,-2.964102 -3.39702,-3.574562 -1.85377,-1.95122 -3.41606,-3.6716 -4.13984,-4.55876 -0.38707,-0.47444 -0.74385,-0.89035 -0.79286,-0.92423 -0.17554,-0.12141 -2.55933,-3.53848 -3.39574,-4.86767 -1.10519,-1.75633 -2.95253,-5.43772 -3.5557,-7.08584 -0.26045,-0.71166 -0.54556,-1.4603 -0.63357,-1.66363 -0.088,-0.20333 -0.36322,-1.03515 -0.61158,-1.84848 -0.24836,-0.81333 -0.52777,-1.72833 -0.62091,-2.03333 -0.0931,-0.305 -0.22536,-0.85954 -0.29381,-1.23232 -0.0685,-0.37277 -0.26099,-1.34323 -0.42784,-2.15656 -0.55506,-2.70563 -0.75072,-4.98297 -0.74113,-8.62624 0.006,-2.42272 0.0655,-3.72928 0.21761,-4.80604 0.85689,-6.06717 2.07237,-10.18489 4.38331,-14.84946 2.57197,-5.19144 5.38349,-9.0336 9.55758,-13.06111 2.38887,-2.30499 4.42146,-3.84145 7.45553,-5.63574 4.61583,-2.72971 9.44628,-4.48515 15.03431,-5.46363 4.98474,-0.87285 11.65287,-0.94371 16.14338,-0.17155 0.57611,0.0991 1.3802,0.23461 1.78687,0.30123 2.82748,0.46313 7.19821,1.78682 9.69373,2.93577 4.18393,1.92629 6.90441,3.59394 9.96177,6.10654 1.49649,1.22985 6.31345,6.10042 8.54691,8.64204 l 0.32487,0.3697 0.68599,-0.73939 c 0.3773,-0.40667 1.42633,-1.51965 2.33118,-2.47329 0.90485,-0.95364 1.80126,-1.91939 1.99203,-2.1461 0.56008,-0.66562 3.20361,-3.03137 4.60382,-4.12005 0.71166,-0.55334 1.95938,-1.443 2.77271,-1.97703 0.81334,-0.53403 1.63145,-1.0742 1.81805,-1.20038 0.5615,-0.37972 4.01519,-2.11904 5.2678,-2.65292 1.76976,-0.75431 4.10024,-1.58962 5.54544,-1.98764 1.12892,-0.31092 1.86108,-0.48908 4.12827,-1.00454 1.25268,-0.28481 4.39891,-0.63098 6.46968,-0.71184 3.86113,-0.15076 8.10726,0.12728 10.84441,0.71012 3.42857,0.73007 4.25562,0.95191 6.59291,1.76843 5.09806,1.781 8.91341,3.86804 13.24744,7.24652 1.45972,1.13789 1.79348,1.42578 3.26565,2.81676 1.75407,1.65734 4.34851,4.77709 5.77441,6.94359 0.91284,1.38696 1.58495,2.43865 1.74582,2.73179 1.74153,3.17346 2.54512,4.95552 3.58425,7.94846 1.10268,3.17599 1.59254,5.26081 2.15716,9.18079 0.36263,2.51758 0.39931,7.98108 0.0716,10.65956 -0.56399,4.60923 -1.86673,9.52805 -3.47596,13.12421 -1.24391,2.77981 -1.89102,4.03975 -3.10129,6.03837 -2.03928,3.3676 -4.03092,5.82897 -8.62531,10.65956 -0.41902,0.44056 -0.88131,0.93965 -1.02733,1.10909 -0.14603,0.16945 -0.80173,0.86371 -1.45713,1.54281 -0.65541,0.679102 -2.02335,2.120922 -3.03986,3.204032 -1.01653,1.08312 -2.37516,2.52388 -3.01919,3.20171 -0.64403,0.67781 -1.94732,2.06167 -2.89621,3.07523 -1.80033,1.92304 -3.37671,3.58938 -5.36737,5.67363 -1.36681,1.43108 -4.65258,4.92324 -6.95582,7.39274 -1.75124,1.87765 -3.21371,3.42485 -5.29996,5.60703 -0.74608,0.7804 -2.10471,2.22051 -3.01918,3.20027 -0.91445,0.97974 -2.13741,2.28292 -2.71767,2.89595 -0.58025,0.61302 -1.5488,1.6414 -2.15234,2.28529 -0.60353,0.64389 -1.54562,1.64207 -2.09354,2.21818 -2.3365,2.45675 -6.38594,6.74617 -7.02521,7.44155 -0.22286,0.24243 -4.51484,4.78792 -5.4239,5.74427 -0.48319,0.50833 -1.34528,1.41857 -1.91575,2.02274 -1.18538,1.25543 -1.08626,1.15021 -3.37863,3.58658 -2.10508,2.23733 -3.17027,3.3648 -6.10648,6.46348 -1.25031,1.31951 -2.80011,2.95541 -3.44399,3.63535 -0.64389,0.67993 -1.22961,1.25217 -1.30159,1.27163 -0.072,0.0195 -0.46017,-0.30484 -0.86263,-0.72069 z"
       style="fill:#ff0000;stroke-width:0.123232" />
  </g>
</svg>
