<?xml version="1.0" encoding="UTF-8" standalone="no"?>
<svg
   xmlns:dc="http://purl.org/dc/elements/1.1/"
   xmlns:cc="http://creativecommons.org/ns#"
   xmlns:rdf="http://www.w3.org/1999/02/22-rdf-syntax-ns#"
   xmlns:svg="http://www.w3.org/2000/svg"
   xmlns="http://www.w3.org/2000/svg"
   width="199.56279mm"
   height="53.993488mm"
   viewBox="0 0 199.56279 53.993488"
   version="1.1"
   id="svg8">
  <defs
     id="defs2">
    <rect
       x="41.557796"
       y="86.876732"
       width="127.96651"
       height="35.377457"
       id="rect1023" />
  </defs>
  <metadata
     id="metadata5">
    <rdf:RDF>
      <cc:Work
         rdf:about="">
        <dc:format>image/svg+xml</dc:format>
        <dc:type
           rdf:resource="http://purl.org/dc/dcmitype/StillImage" />
      </cc:Work>
    </rdf:RDF>
  </metadata>
  <g
     id="layer1"
     transform="translate(-4.6981583,1.0454178)">
    <path
       style="fill:#00a100;fill-opacity:1;stroke-width:0.159469"
       d="m 51.028019,42.784005 c -1.621331,-0.25558 -2.894556,-0.64394 -4.276004,-1.30429 -1.095339,-0.52359 -1.60102,-0.89649 -2.634779,-1.94301 -2.272816,-2.30084 -3.152875,-4.76855 -3.163248,-8.86985 -0.0048,-1.90633 0.0587,-2.56429 0.36177,-3.74753 1.049888,-4.09883 3.462528,-6.69617 7.355505,-7.91861 1.71594,-0.53882 4.807115,-0.53906 6.53262,-4.9e-4 2.856868,0.89168 4.755462,2.4885 5.965202,5.01708 0.830214,1.7353 1.078757,2.71936 1.108905,4.39044 0.02851,1.58193 -0.207805,1.98444 -1.370979,2.33492 -0.461622,0.1391 -4.209579,0.72062 -8.328794,1.29228 -4.119213,0.57166 -7.507323,1.05723 -7.529136,1.07903 -0.144387,0.14439 0.694121,2.29373 1.197699,3.07006 0.790091,1.21801 1.658446,1.98713 2.919002,2.58537 1.444409,0.68552 2.65832,0.87952 4.955178,0.79193 2.183686,-0.0833 3.3184,-0.41532 5.083504,-1.48756 0.767688,-0.46635 0.989603,-0.536 1.255065,-0.39393 0.458758,0.24552 0.804188,0.99717 0.804188,1.74991 0,0.54381 -0.103631,0.74942 -0.656173,1.30197 -0.725848,0.72584 -2.068,1.39105 -3.649497,1.80878 -1.207372,0.31891 -4.574538,0.45718 -5.930028,0.24351 z m 1.060682,-13.80246 c 3.505285,-0.48495 6.399944,-0.90842 6.432575,-0.94104 0.139361,-0.13937 -0.333924,-1.85498 -0.75209,-2.72624 -0.979231,-2.04026 -2.474907,-3.11845 -4.777703,-3.44411 -4.276481,-0.60477 -7.632616,2.22217 -8.128268,6.84663 -0.06836,0.63777 -0.09344,1.19043 -0.05575,1.22813 0.03773,0.0377 0.257421,0.0348 0.488268,-0.007 0.230841,-0.0413 3.287667,-0.47188 6.792951,-0.95682 z m 23.766454,13.72564 c -2.3539,-0.44287 -4.023846,-1.31303 -5.683124,-2.9613 -0.951584,-0.94527 -1.359872,-1.50369 -1.866668,-2.55309 -1.467583,-3.03884 -1.820499,-6.65777 -0.988085,-10.13212 1.223139,-5.10515 5.012624,-8.22374 10.292041,-8.46992 2.372156,-0.11062 3.968711,0.2005 5.93326,1.1562 4.825286,2.34736 7.092858,8.3067 5.611406,14.74716 -1.383341,6.01392 -6.895118,9.41788 -13.29883,8.21307 z m 5.507638,-3.63446 c 1.807101,-0.86663 2.910443,-2.20158 3.620283,-4.38024 0.533509,-1.63744 0.678969,-4.92709 0.297888,-6.73661 -0.724064,-3.4381 -2.838979,-5.62156 -5.850868,-6.04048 -4.138061,-0.57554 -7.315232,1.76015 -8.216664,6.04048 -0.384167,1.82419 -0.235856,5.09823 0.30638,6.76337 0.788175,2.42039 2.227515,3.91395 4.494816,4.66415 0.427707,0.14152 1.268373,0.19487 2.551507,0.16193 1.684333,-0.0432 2.019439,-0.0999 2.796658,-0.4726 z m -65.809831,3.23673 c -0.876835,-0.35385 -0.854275,-0.0831 -0.854275,-10.25078 0,-10.3941 -0.05937,-9.79916 1.080144,-10.82863 1.171648,-1.05851 4.025491,-2.15148 6.601347,-2.52819 1.934395,-0.2829 4.978064,-0.12723 6.431538,0.32895 3.2807,1.02964 4.959319,2.73219 5.579227,5.65873 0.19052,0.89942 0.236399,2.69636 0.238635,9.34611 l 0.003,8.2326 -0.49834,0.0997 c -1.460459,0.29209 -2.954761,-0.006 -3.26973,-0.65191 -0.07641,-0.15673 -0.174806,-3.87303 -0.21866,-8.25844 l -0.07974,-7.97346 -0.381424,-0.84415 c -1.360451,-3.01085 -5.85834,-3.69848 -10.661821,-1.62995 l -0.837218,0.36054 v 9.39299 9.39301 l -0.409053,0.15551 c -0.497671,0.18922 -2.252227,0.18754 -2.723402,-0.002 z"
       id="path1019" />
    <path
       id="path847"
       d="m 122.31348,42.839885 c -3.72565,-0.6832 -6.41912,-2.66009 -7.94029,-5.82783 -0.83809,-1.74526 -1.12676,-2.99829 -1.23426,-5.35762 -0.11262,-2.47122 0.12011,-4.21546 0.80646,-6.04444 1.23218,-3.28346 3.71821,-5.57658 7.19904,-6.64041 0.75146,-0.22966 1.47024,-0.29113 3.34886,-0.28638 2.15924,0.005 2.5162,0.0476 3.66779,0.43243 4.83468,1.61581 7.5748,5.82081 7.5748,11.62432 0,6.05885 -2.78415,10.28634 -7.73225,11.74075 -1.41493,0.41589 -4.36529,0.60213 -5.69015,0.35918 z m 5.32053,-3.79844 c 1.82674,-0.89959 3.06984,-2.55839 3.73168,-4.97957 0.38231,-1.39857 0.39087,-4.89786 0.0157,-6.41865 -1.00278,-4.06496 -4.02295,-6.20582 -8.0368,-5.69691 -2.34516,0.29734 -4.14482,1.62472 -5.1946,3.83144 -0.7663,1.6108 -0.98236,2.74172 -0.97335,5.09473 0.0116,3.02919 0.6169,5.0379 1.9872,6.59465 0.84067,0.95505 1.41863,1.35594 2.60494,1.8069 0.84879,0.32267 1.21052,0.36391 2.88766,0.3292 1.80415,-0.0373 1.97991,-0.0705 2.97757,-0.56179 z m -30.751708,3.31417 c -0.892572,-0.36019 -0.854275,0.26547 -0.854275,-13.95688 0,-14.21519 -0.01477,-13.95398 0.892964,-15.77194 0.761233,-1.52452 2.083694,-2.5549 4.171149,-3.2498997 1.11361,-0.37077 1.48555,-0.41215 3.78642,-0.42129 2.22714,-0.009 2.69815,0.036 3.70489,0.3524 1.44174,0.4532 2.43468,1.3054297 2.43468,2.0896597 0,0.55596 -0.34939,1.5157 -0.61056,1.67711 -0.0906,0.056 -0.71272,-0.0822 -1.38255,-0.30704 -3.30311,-1.10882 -6.51916,-0.83736 -7.91564,0.66813 -0.93683,1.00995 -1.250914,2.33284 -1.252891,5.27709 l -0.0012,1.79402 h 5.007671 5.00769 l 0.17507,0.50221 c 0.27521,0.78946 0.21631,1.80354 -0.12958,2.23098 l -0.30465,0.37647 -4.83823,0.0797 -4.838237,0.0797 -0.04117,9.27082 -0.04117,9.27082 -0.357526,0.0958 c -0.522009,0.13991 -2.215702,0.10235 -2.612906,-0.0579 z m 46.078858,-0.003 c -0.19223,-0.0774 -0.47928,-0.33887 -0.63788,-0.58097 -0.26981,-0.41187 -0.28837,-1.03589 -0.28837,-9.69634 0,-9.21132 0.002,-9.2593 0.34831,-9.90696 0.63964,-1.19517 2.59902,-2.29907 5.39394,-3.03891 1.38388,-0.36633 1.92876,-0.42406 4.14485,-0.43912 2.42103,-0.0165 2.5922,0.003 3.34732,0.38131 1.03454,0.51827 1.34822,1.21573 1.01629,2.25974 l -0.21741,0.68379 -2.95018,0.014 c -3.18529,0.0152 -4.27029,0.20307 -6.25917,1.0839 l -0.91695,0.4061 v 9.39754 9.39752 l -0.49834,0.0997 c -0.69969,0.13994 -2.06658,0.10617 -2.48241,-0.0613 z m 18.82514,0.003 c -0.87522,-0.35319 -0.85436,-0.10965 -0.85339,-9.96378 0,-5.76368 0.0612,-9.31133 0.1656,-9.6872 0.33511,-1.20658 1.75035,-2.29211 4.11201,-3.15401 4.2888,-1.56522 8.76985,-1.18589 11.64634,0.98589 0.70138,0.52954 0.9173,0.62097 1.12295,0.47551 2.96368,-2.09624 6.45082,-2.85637 10.00809,-2.18157 2.63161,0.49922 4.87702,2.15813 5.62421,4.1552 0.57036,1.52442 0.64258,2.76786 0.64584,11.12003 l 0.003,8.09702 -0.43854,0.16897 c -0.24119,0.0929 -0.95817,0.14362 -1.59329,0.11263 -0.94006,-0.0459 -1.22172,-0.12329 -1.51496,-0.41635 l -0.36021,-0.36 -0.0797,-8.24831 -0.0797,-8.24832 -0.47841,-0.95682 c -0.82288,-1.64575 -2.22825,-2.3474 -4.70548,-2.34925 -1.66707,-0.001 -3.13169,0.4634 -4.69379,1.48911 -0.96225,0.63185 -1.05583,0.73984 -0.95274,1.09935 0.0629,0.21927 0.14334,4.29199 0.17882,9.05048 l 0.0645,8.65181 -0.44734,0.17232 c -0.24605,0.0948 -0.96698,0.14697 -1.60209,0.11598 -0.94006,-0.0459 -1.22173,-0.12329 -1.51496,-0.41635 l -0.36021,-0.36 -0.0797,-8.24831 -0.0797,-8.24832 -0.42465,-0.90589 c -0.76398,-1.62969 -2.38544,-2.42061 -4.91759,-2.39871 -1.46507,0.0127 -3.3326,0.50426 -4.54488,1.19637 l -0.63788,0.36418 -0.0412,9.3682 -0.0412,9.3682 -0.40777,0.15504 c -0.49664,0.18882 -2.25151,0.18682 -2.72213,-0.003 z"
       style="fill:#3a4a3d;fill-opacity:1;stroke:none;stroke-width:0.159469" />
  </g>
</svg>
